# xmcd
#
# Track frame offsets: 
#        150
#        19902
#        42207
#        60425
#        86077
#        104767
#        124720
#        146027
#        163737
#        184817
#        210532
#        229520
#        245740
#        265800
#        285672
#
# Disc length: 4068 seconds
#
# Revision: 2
# Processed by: cddbd v1.5.2PL0 Copyright (c) Steve Scherf et al.
# Submitted via: ExactAudioCopy v1.3
#
DISCID=da0fe20f
DTITLE=トーマス．ハーデン．トリオ - ＪＡＺＺで聴く　ロマンティック
DYEAR=2005
DGENRE=Jazz
TTITLE0=モーツァルト：ロマンツェ (アイネ．クライネ．ナハトムジーク第２楽章より)
TTITLE1=ベートーヴェン：ロマンツェ (ロマンス第１番より)
TTITLE2=チャイコフスキー：アンダンテ．カンタービレ
TTITLE3=オッフェンバック：ホフマンの舟歌
TTITLE4=スメタナ：モルダウ
TTITLE5=シューベルト：未完成 (交響曲第８番第１楽章より)
TTITLE6=マルティーニ：愛の喜び
TTITLE7=メンデルスゾーン：歌の翼に
TTITLE8=リムスキー＝コルサコフ：若い王子と王女 (交響組曲「シェエラザード」第３楽章より)
TTITLE9=ビゼー：間奏曲 (歌劇「カルメン」第１組曲第３幕への間奏曲より)
TTITLE10=ショパン：ノクターン
TTITLE11=クライスラー：愛の喜び
TTITLE12=サティ：ジュ．トゥ．ヴ
TTITLE13=ドビュッシー：月の光
TTITLE14=フォーレ：夢のあとに
EXTD=YEAR: 1997
EXTT0=
EXTT1=
EXTT2=
EXTT3=
EXTT4=
EXTT5=
EXTT6=
EXTT7=
EXTT8=
EXTT9=
EXTT10=
EXTT11=
EXTT12=
EXTT13=
EXTT14=
PLAYORDER=
